<?xml version="1.0" encoding="UTF-8"?>
<svg xmlns="http://www.w3.org/2000/svg" xmlns:xlink="http://www.w3.org/1999/xlink" width="256px" height="256px" viewBox="0 0 256 256" version="1.1">
<g id="surface1">
<path style=" stroke:none;fill-rule:nonzero;fill:rgb(0%,32.156864%,100%);fill-opacity:1;" d="M 128 0 C 198.699219 0 256 57.300781 256 128 C 256 198.699219 198.699219 256 128 256 C 57.300781 256 0 198.699219 0 128 C 0 57.300781 57.300781 0 128 0 Z M 128 0 "/>
<path style=" stroke:none;fill-rule:nonzero;fill:rgb(100%,100%,100%);fill-opacity:1;" d="M 128.023438 173 C 103.175781 173 83.023438 152.875 83.023438 128 C 83.023438 103.125 103.175781 83 128.023438 83 C 150.300781 83 168.800781 99.25 172.351562 120.5 L 217.675781 120.5 C 213.851562 74.300781 175.175781 38 128 38 C 78.300781 38 38 78.300781 38 128 C 38 177.699219 78.300781 218 128 218 C 175.175781 218 213.851562 181.699219 217.675781 135.5 L 172.324219 135.5 C 168.75 156.75 150.300781 173 128.023438 173 Z M 128.023438 173 "/>
</g>
</svg>
