<?xml version="1.0" encoding="UTF-8"?>
<svg xmlns="http://www.w3.org/2000/svg" xmlns:xlink="http://www.w3.org/1999/xlink" width="32px" height="32px" viewBox="0 0 32 32" version="1.1">
<g id="surface1">
<path style=" stroke:none;fill-rule:nonzero;fill:rgb(0%,32.156864%,100%);fill-opacity:1;" d="M 16 0 C 24.835938 0 32 7.164062 32 16 C 32 24.835938 24.835938 32 16 32 C 7.164062 32 0 24.835938 0 16 C 0 7.164062 7.164062 0 16 0 Z M 16 0 "/>
<path style=" stroke:none;fill-rule:nonzero;fill:rgb(100%,100%,100%);fill-opacity:1;" d="M 16.003906 21.625 C 12.898438 21.625 10.378906 19.109375 10.378906 16 C 10.378906 12.890625 12.898438 10.375 16.003906 10.375 C 18.789062 10.375 21.101562 12.40625 21.542969 15.0625 L 27.210938 15.0625 C 26.730469 9.289062 21.898438 4.75 16 4.75 C 9.789062 4.75 4.75 9.789062 4.75 16 C 4.75 22.210938 9.789062 27.25 16 27.25 C 21.898438 27.25 26.730469 22.710938 27.210938 16.9375 L 21.539062 16.9375 C 21.09375 19.59375 18.789062 21.625 16.003906 21.625 Z M 16.003906 21.625 "/>
</g>
</svg>
